<?xml version="1.0" encoding="UTF-8" standalone="no"?><!DOCTYPE svg PUBLIC "-//W3C//DTD SVG 1.1//EN" "http://www.w3.org/Graphics/SVG/1.1/DTD/svg11.dtd"><svg width="100%" height="100%" viewBox="0 0 31 21" version="1.1" xmlns="http://www.w3.org/2000/svg" xmlns:xlink="http://www.w3.org/1999/xlink" xml:space="preserve" xmlns:serif="http://www.serif.com/" style="fill-rule:evenodd;clip-rule:evenodd;stroke-linejoin:round;stroke-miterlimit:2;"><rect id="iPad-9.7-" serif:id="iPad 9.7&quot;" x="-23.091" y="-13.648" width="79.034" height="51.335" style="fill:#09090b;"/><g id="iPad-9.7-1" serif:id="iPad 9.7&quot;"><g transform="matrix(0.269318,0,0,0.269318,-61.8002,12.7526)"><g transform="matrix(105.487,0,0,105.487,225.989,29.1264)"><path d="M0.516,-0.361c0,-0.252 -0.082,-0.364 -0.242,-0.364c-0.159,0 -0.241,0.112 -0.241,0.364c-0.001,0.256 0.081,0.371 0.241,0.371c0.16,-0 0.242,-0.115 0.242,-0.371Zm-0.103,0c0,0.274 -0.036,0.363 -0.139,0.363c-0.103,-0 -0.139,-0.089 -0.139,-0.363c0,-0.269 0.035,-0.356 0.138,-0.356c0.105,0 0.14,0.087 0.14,0.356Z" style="fill:#fff;fill-rule:nonzero;"/></g><g transform="matrix(105.487,0,0,105.487,283.796,29.1264)"><path d="M0.032,-0.707l0.076,0l0,0.699l-0.076,-0l0,0.008l0.255,-0l0,-0.008l-0.081,-0l0,-0.698l0.064,0c0.122,0 0.148,0.097 0.148,0.198c-0,0.127 -0.046,0.203 -0.129,0.203l-0.05,0l-0,0.008l0.05,0c0.121,0 0.23,-0.067 0.23,-0.211c0,-0.113 -0.067,-0.207 -0.249,-0.207l-0.238,0l0,0.008Z" style="fill:#fff;fill-rule:nonzero;"/></g><g transform="matrix(105.487,0,0,105.487,327.045,29.1264)"><path d="M0.098,0.01c0.03,0 0.053,-0.025 0.053,-0.053c0,-0.029 -0.023,-0.053 -0.053,-0.053c-0.029,0 -0.052,0.024 -0.052,0.053c0,0.028 0.023,0.053 0.052,0.053Z" style="fill:#52525b;fill-rule:nonzero;"/></g></g></g></svg>